<svg width="52" height="53" viewBox="0 0 52 53" fill="none" xmlns="http://www.w3.org/2000/svg">
<g clip-path="url(#clip0_444_276)">
<path fill-rule="evenodd" clip-rule="evenodd" d="M10.6641 0.199219H41.3359C47.2192 0.214961 51.9843 4.97997 52 10.8629V41.5352C51.9843 47.4183 47.2192 52.1834 41.3363 52.199L10.6641 52.1992C4.78095 52.1834 0.0158437 47.4183 0.000203125 41.5355L0 10.8633C0.0158438 4.97997 4.78126 0.214961 10.6641 0.199219ZM37.466 15.7771C35.295 14.7841 33.0033 14.0794 30.6494 13.681C30.3286 14.2571 30.0381 14.8496 29.7789 15.4559C28.5269 15.267 27.2624 15.172 25.9961 15.1716C24.732 15.1716 23.4615 15.2675 22.2129 15.4535C21.9578 14.8515 21.6617 14.2547 21.3403 13.6807C18.9863 14.0829 16.6944 14.789 14.5221 15.7811C10.2077 22.1635 9.03855 28.3863 9.62315 34.5207C12.1494 36.3866 14.9768 37.8058 17.9826 38.7165C18.6566 37.8066 19.2605 36.8379 19.7731 35.8299C18.795 35.4654 17.8511 35.015 16.9525 34.4839C17.189 34.3123 17.4203 34.1357 17.6436 33.9641C20.2565 35.1913 23.1115 35.8313 25.9999 35.8313C28.8885 35.8313 31.7435 35.1913 34.3564 33.964C34.5824 34.1484 34.8137 34.3251 35.0475 34.4837C34.1471 35.0158 33.2016 35.4674 32.2218 35.8333C32.7363 36.8436 33.3352 37.8085 34.0124 38.7177C37.0208 37.8098 39.8505 36.3907 42.3774 34.5226L42.3766 34.5233C43.0626 27.4094 41.2049 21.2437 37.466 15.7771ZM20.5125 30.7481C18.8834 30.7481 17.5374 29.2698 17.5374 27.451C17.5374 25.6322 18.8365 24.1407 20.5072 24.1407C22.1779 24.1407 23.5133 25.6322 23.4848 27.451C23.4562 29.2698 22.1727 30.7481 20.5125 30.7481ZM31.4874 30.7481C29.8557 30.7481 28.5151 29.2698 28.5151 27.451C28.5151 25.6322 29.8142 24.1407 31.4874 24.1407C33.1607 24.1407 34.4859 25.6322 34.4572 27.451C34.4287 29.2698 33.1478 30.7481 31.4874 30.7481Z" fill="#266E85"/>
</g>
<defs>
<clipPath id="clip0_444_276">
<rect width="52" height="52" fill="white" transform="translate(0 0.199219)"/>
</clipPath>
</defs>
</svg>
