<svg width="52" height="53" viewBox="0 0 52 53" fill="none" xmlns="http://www.w3.org/2000/svg">
<g clip-path="url(#clip0_444_270)">
<path d="M13.3385 41.6367C13.158 41.8398 12.9323 41.806 12.6615 41.5352C12.3681 41.2869 12.3229 41.0725 12.526 40.8919C12.7066 40.6888 12.9323 40.7227 13.2031 40.9935C13.474 41.2418 13.5191 41.4562 13.3385 41.6367ZM11.9167 39.5716C12.1198 39.8424 12.1198 40.0569 11.9167 40.2148C11.7361 40.3503 11.5443 40.2713 11.3411 39.9779C11.138 39.6845 11.138 39.4813 11.3411 39.3685C11.5443 39.2105 11.7361 39.2782 11.9167 39.5716ZM9.85156 37.5404C9.73872 37.6984 9.59201 37.7209 9.41146 37.6081C9.18576 37.4952 9.10677 37.3598 9.17448 37.2018C9.24219 37.089 9.38889 37.0664 9.61458 37.1341C9.84028 37.247 9.91927 37.3824 9.85156 37.5404ZM10.901 38.6914C10.7656 38.8494 10.5851 38.8155 10.3594 38.5898C10.1562 38.3416 10.1337 38.161 10.2917 38.0482C10.4271 37.9128 10.6076 37.9466 10.8333 38.1497C11.0365 38.398 11.059 38.5786 10.901 38.6914ZM15.2682 42.4831C15.178 42.7539 14.9635 42.8216 14.625 42.6862C14.2413 42.5959 14.0946 42.4267 14.1849 42.1784C14.2752 41.9301 14.4896 41.8511 14.8281 41.9414C15.1892 42.0543 15.3359 42.2348 15.2682 42.4831ZM17.401 42.6523C17.401 42.9006 17.2205 43.0247 16.8594 43.0247C16.4757 43.0699 16.2839 42.9457 16.2839 42.6523C16.2839 42.4041 16.4644 42.2799 16.8255 42.2799C17.2092 42.2348 17.401 42.3589 17.401 42.6523ZM19.3646 42.3138C19.4097 42.5395 19.2517 42.6975 18.8906 42.7878C18.5295 42.878 18.3264 42.7878 18.2812 42.5169C18.2361 42.2461 18.3941 42.0768 18.7552 42.0091C19.1163 41.964 19.3194 42.0655 19.3646 42.3138ZM52 9.94922V42.4492C52 45.135 51.0464 47.4314 49.1393 49.3385C47.2322 51.2457 44.9358 52.1992 42.25 52.1992H34.6667C34.3056 52.1992 34.0291 52.1879 33.8372 52.1654C33.6454 52.1428 33.4254 52.0864 33.1771 51.9961C32.9288 51.9058 32.7483 51.7422 32.6354 51.5052C32.5226 51.2682 32.4661 50.9579 32.4661 50.5742V42.4831C32.4661 40.2938 31.8793 38.6914 30.7057 37.6758C31.9922 37.5404 33.1489 37.3372 34.1758 37.0664C35.2027 36.7956 36.2635 36.3555 37.3581 35.7461C38.4527 35.1367 39.3668 34.3863 40.1003 33.4948C40.8338 32.6033 41.4319 31.4184 41.8945 29.9401C42.3572 28.4618 42.5885 26.7635 42.5885 24.8451C42.5885 22.1141 41.697 19.7895 39.9141 17.8711C40.7491 15.8173 40.6589 13.5152 39.6432 10.9648C39.0113 10.7617 38.0972 10.8859 36.901 11.3372C35.7049 11.7886 34.6667 12.2852 33.7865 12.8268L32.5 13.6393C30.401 13.0525 28.2344 12.7591 26 12.7591C23.7656 12.7591 21.599 13.0525 19.5 13.6393C19.1389 13.3911 18.6593 13.0864 18.0612 12.7253C17.4631 12.3641 16.5208 11.9297 15.2344 11.4219C13.9479 10.9141 12.9774 10.7617 12.3229 10.9648C11.3299 13.5152 11.2509 15.8173 12.0859 17.8711C10.303 19.7895 9.41146 22.1141 9.41146 24.8451C9.41146 26.7635 9.6428 28.4562 10.1055 29.9232C10.5681 31.3902 11.1606 32.5751 11.8828 33.4779C12.605 34.3806 13.5135 35.1367 14.6081 35.7461C15.7027 36.3555 16.7635 36.7956 17.7904 37.0664C18.8173 37.3372 19.974 37.5404 21.2604 37.6758C20.3576 38.4883 19.8047 39.6506 19.6016 41.1628C19.1276 41.3885 18.6198 41.5577 18.0781 41.6706C17.5365 41.7834 16.8932 41.8398 16.1484 41.8398C15.4036 41.8398 14.6645 41.5972 13.931 41.112C13.1975 40.6267 12.5712 39.9214 12.0521 38.9961C11.6233 38.2739 11.076 37.6871 10.4102 37.2357C9.74436 36.7843 9.18576 36.5135 8.73438 36.4232L8.05729 36.3216C7.58333 36.3216 7.25608 36.3724 7.07552 36.474C6.89497 36.5755 6.83854 36.7053 6.90625 36.8633C6.97396 37.0213 7.07552 37.1793 7.21094 37.3372C7.34635 37.4952 7.49306 37.6306 7.65104 37.7435L7.88802 37.9128C8.38455 38.1385 8.87543 38.5673 9.36068 39.1992C9.84592 39.8312 10.2014 40.4067 10.4271 40.9258L10.7656 41.7044C11.059 42.5621 11.5556 43.2561 12.2552 43.7865C12.9549 44.3168 13.7109 44.6554 14.5234 44.8021C15.3359 44.9488 16.1202 45.0278 16.8763 45.0391C17.6324 45.0503 18.2587 45.0109 18.7552 44.9206L19.5339 44.7852C19.5339 45.6428 19.5395 46.8051 19.5508 48.2721C19.5621 49.7392 19.5677 50.5065 19.5677 50.5742C19.5677 51.0707 19.4436 51.4488 19.1953 51.7083C18.947 51.9679 18.6988 52.1146 18.4505 52.1484C18.2023 52.1823 17.8299 52.1992 17.3333 52.1992H9.75C7.06424 52.1992 4.7678 51.2457 2.86068 49.3385C0.953559 47.4314 0 45.135 0 42.4492V9.94922C0 7.26345 0.953559 4.96701 2.86068 3.0599C4.7678 1.15278 7.06424 0.199219 9.75 0.199219H42.25C44.9358 0.199219 47.2322 1.15278 49.1393 3.0599C51.0464 4.96701 52 7.26345 52 9.94922Z" fill="#266E85"/>
</g>
<defs>
<clipPath id="clip0_444_270">
<rect width="52" height="52" fill="white" transform="translate(0 0.199219)"/>
</clipPath>
</defs>
</svg>
