<svg width="52" height="53" viewBox="0 0 52 53" fill="none" xmlns="http://www.w3.org/2000/svg">
<g clip-path="url(#clip0_444_272)">
<path fill-rule="evenodd" clip-rule="evenodd" d="M8 0.199219C3.58172 0.199219 0 3.78094 0 8.19922V44.1992C0 48.6175 3.58172 52.1992 8 52.1992H44C48.4183 52.1992 52 48.6175 52 44.1992V8.19922C52 3.78094 48.4183 0.199219 44 0.199219H8ZM43.9787 11.7055L37.8693 41.0925C37.7254 41.7863 36.9118 42.1007 36.3377 41.6836L27.9977 35.6286C27.4914 35.2609 26.801 35.2805 26.3163 35.6757L21.6923 39.4449C21.1558 39.8838 20.3471 39.6392 20.1416 38.9783L18.0961 32.3999C17.3611 30.0362 15.5733 28.1458 13.2541 27.2803L8.63566 25.5566C7.79303 25.2409 7.78583 24.0513 8.62606 23.7277L42.6697 10.5945C43.3914 10.3154 44.136 10.9477 43.9787 11.7055Z" fill="#266E85"/>
<path fill-rule="evenodd" clip-rule="evenodd" d="M35.835 17.0192L19.6231 27.004C19.0018 27.3874 18.7093 28.1378 18.9098 28.8404L20.6626 34.9993C20.7872 35.4357 21.4204 35.3911 21.4811 34.9402L21.9366 31.5628C22.0227 30.9269 22.3259 30.3407 22.7963 29.9031L36.1756 17.4663C36.4261 17.2343 36.1262 16.8404 35.835 17.0192Z" fill="#266E85"/>
</g>
<defs>
<clipPath id="clip0_444_272">
<rect width="52" height="52" fill="white" transform="translate(0 0.199219)"/>
</clipPath>
</defs>
</svg>
