<svg width="52" height="53" viewBox="0 0 52 53" fill="none" xmlns="http://www.w3.org/2000/svg">
<g clip-path="url(#clip0_444_278)">
<path fill-rule="evenodd" clip-rule="evenodd" d="M47.1249 0.199219H4.875C2.19375 0.199219 0 2.39297 0 5.07422V47.3242C0 50.0055 2.19375 52.1992 4.875 52.1992H47.1249C49.8062 52.1992 51.9999 50.0055 51.9999 47.3242V5.07422C51.9999 2.39297 49.8062 0.199219 47.1249 0.199219ZM42.2546 16.1189C41.0399 16.6589 39.7501 17.0109 38.4295 17.163C39.8037 16.3435 40.8583 15.0326 41.3622 13.4732C40.0734 14.2361 38.6425 14.7965 37.1301 15.0949C35.9075 13.8014 34.1772 12.9963 32.2598 12.9963C28.5767 12.9963 25.5941 15.9769 25.5941 19.6601C25.5941 20.1764 25.6497 20.6859 25.7639 21.1773C20.2238 20.8942 15.3113 18.2418 12.0206 14.2073C11.4288 15.225 11.1169 16.3812 11.1166 17.5584C11.1166 19.8712 12.2913 21.9153 14.081 23.1043C12.987 23.0726 11.963 22.7704 11.058 22.2752V22.3597C11.058 25.5898 13.3574 28.2884 16.4092 28.8987C15.8363 29.0539 15.2455 29.1327 14.652 29.1329C14.2221 29.1329 13.8066 29.0907 13.3949 29.0129C14.2442 31.6606 16.7028 33.5914 19.622 33.6442C17.3361 35.4349 14.4649 36.5012 11.3383 36.5012C10.798 36.5012 10.2711 36.4695 9.74529 36.408C12.702 38.3062 16.2066 39.4021 19.9724 39.4021C32.2359 39.4021 38.9448 29.2413 38.9448 20.4307C38.9448 20.138 38.94 19.8521 38.9257 19.5651C40.2279 18.6342 41.3603 17.4577 42.2508 16.1219L42.2546 16.1189Z" fill="#266E85"/>
</g>
<defs>
<clipPath id="clip0_444_278">
<rect width="52" height="52" fill="white" transform="translate(0 0.199219)"/>
</clipPath>
</defs>
</svg>
